<svg width="428" height="192" viewBox="0 0 428 192" fill="none" xmlns="http://www.w3.org/2000/svg">
<g filter="url(#filter0_d_0_120)">
<mask id="path-1-inside-1_0_120" fill="white">
<path fill-rule="evenodd" clip-rule="evenodd" d="M110 18C106.686 18 104.128 20.9133 102.254 23.6466C100.453 26.2754 97.4277 28 94 28C90.5723 28 87.5474 26.2754 85.7456 23.6466C83.8722 20.9133 81.3137 18 78 18H58C44.7452 18 34 28.7452 34 42V114C34 127.255 44.7452 138 58 138H78C81.3137 138 83.8722 135.087 85.7456 132.353C87.5474 129.725 90.5723 128 94 128C97.4277 128 100.453 129.725 102.254 132.353C104.128 135.087 106.686 138 110 138H390C403.255 138 414 127.255 414 114V42C414 28.7452 403.255 18 390 18H110Z"/>
</mask>
<path fill-rule="evenodd" clip-rule="evenodd" d="M110 18C106.686 18 104.128 20.9133 102.254 23.6466C100.453 26.2754 97.4277 28 94 28C90.5723 28 87.5474 26.2754 85.7456 23.6466C83.8722 20.9133 81.3137 18 78 18H58C44.7452 18 34 28.7452 34 42V114C34 127.255 44.7452 138 58 138H78C81.3137 138 83.8722 135.087 85.7456 132.353C87.5474 129.725 90.5723 128 94 128C97.4277 128 100.453 129.725 102.254 132.353C104.128 135.087 106.686 138 110 138H390C403.255 138 414 127.255 414 114V42C414 28.7452 403.255 18 390 18H110Z" fill="white"/>
<path d="M102.254 132.353L103.904 131.223L102.254 132.353ZM85.7456 132.353L84.0959 131.223L85.7456 132.353ZM85.7456 23.6466L87.3953 22.5159L85.7456 23.6466ZM102.254 23.6466L103.904 24.7773L102.254 23.6466ZM94 30C98.115 30 101.745 27.9269 103.904 24.7773L100.605 22.5159C99.1598 24.6239 96.7404 26 94 26V30ZM84.0959 24.7773C86.2547 27.9269 89.885 30 94 30V26C91.2596 26 88.8402 24.6239 87.3953 22.5159L84.0959 24.7773ZM58 20H78V16H58V20ZM36 42C36 29.8497 45.8497 20 58 20V16C43.6406 16 32 27.6406 32 42H36ZM36 114V42H32V114H36ZM58 136C45.8497 136 36 126.15 36 114H32C32 128.359 43.6406 140 58 140V136ZM78 136H58V140H78V136ZM87.3953 133.484C88.8402 131.376 91.2596 130 94 130V126C89.885 126 86.2547 128.073 84.0959 131.223L87.3953 133.484ZM94 130C96.7404 130 99.1598 131.376 100.605 133.484L103.904 131.223C101.745 128.073 98.115 126 94 126V130ZM390 136H110V140H390V136ZM412 114C412 126.15 402.15 136 390 136V140C404.359 140 416 128.359 416 114H412ZM412 42V114H416V42H412ZM390 20C402.15 20 412 29.8497 412 42H416C416 27.6406 404.359 16 390 16V20ZM110 20H390V16H110V20ZM100.605 133.484C101.58 134.907 102.811 136.495 104.309 137.74C105.817 138.992 107.722 140 110 140V136C108.964 136 107.934 135.551 106.865 134.663C105.787 133.768 104.802 132.533 103.904 131.223L100.605 133.484ZM78 140C80.2776 140 82.1834 138.992 83.6909 137.74C85.1892 136.495 86.4201 134.907 87.3953 133.484L84.0959 131.223C83.1978 132.533 82.2127 133.768 81.1349 134.663C80.0664 135.551 79.0361 136 78 136V140ZM87.3953 22.5159C86.4201 21.093 85.1892 19.5045 83.6909 18.2599C82.1834 17.0076 80.2776 16 78 16V20C79.0361 20 80.0664 20.4491 81.1349 21.3367C82.2127 22.2321 83.1978 23.467 84.0959 24.7773L87.3953 22.5159ZM103.904 24.7773C104.802 23.467 105.787 22.2321 106.865 21.3367C107.934 20.4491 108.964 20 110 20V16C107.722 16 105.817 17.0076 104.309 18.2599C102.811 19.5045 101.58 21.093 100.605 22.5159L103.904 24.7773Z" fill="#E5E5F0" mask="url(#path-1-inside-1_0_120)"/>
</g>
<defs>
<filter id="filter0_d_0_120" x="-2" y="0" width="452" height="192" filterUnits="userSpaceOnUse" color-interpolation-filters="sRGB">
<feFlood flood-opacity="0" result="BackgroundImageFix"/>
<feColorMatrix in="SourceAlpha" type="matrix" values="0 0 0 0 0 0 0 0 0 0 0 0 0 0 0 0 0 0 127 0" result="hardAlpha"/>
<feOffset dy="18"/>
<feGaussianBlur stdDeviation="18"/>
<feComposite in2="hardAlpha" operator="out"/>
<feColorMatrix type="matrix" values="0 0 0 0 0 0 0 0 0 0 0 0 0 0 0 0 0 0 0.06 0"/>
<feBlend mode="normal" in2="BackgroundImageFix" result="effect1_dropShadow_0_120"/>
<feBlend mode="normal" in="SourceGraphic" in2="effect1_dropShadow_0_120" result="shape"/>
</filter>
</defs>
</svg>
