<svg width="20" height="20" viewBox="0 0 20 20" fill="none" xmlns="http://www.w3.org/2000/svg">
<path d="M16.9283 6.32001H3.43565C3.09693 6.32001 2.82235 6.59459 2.82235 6.93331V9.38651C2.82235 9.72523 3.09693 9.99982 3.43565 9.99982H16.9283C17.267 9.99982 17.5416 9.72523 17.5416 9.38651V6.93331C17.5416 6.59459 17.267 6.32001 16.9283 6.32001Z" stroke="#28CB69" stroke-linecap="round" stroke-linejoin="round"/>
<path d="M16.315 9.99982V15.5195C16.315 15.6822 16.2504 15.8382 16.1353 15.9532C16.0203 16.0682 15.8643 16.1328 15.7017 16.1328H4.66225C4.49959 16.1328 4.3436 16.0682 4.22858 15.9532C4.11357 15.8382 4.04895 15.6822 4.04895 15.5195V9.99982" stroke="#28CB69" stroke-linecap="round" stroke-linejoin="round"/>
<path d="M10.182 6.32001V16.1328" stroke="#28CB69" stroke-linecap="round" stroke-linejoin="round"/>
<path d="M13.6548 5.45386C12.7808 6.32014 10.182 6.32015 10.182 6.32015C10.182 6.32015 10.182 3.72128 11.0482 2.84733C11.3939 2.50168 11.8627 2.3075 12.3515 2.3075C12.8403 2.3075 13.3091 2.50168 13.6548 2.84733C14.0004 3.19297 14.1946 3.66177 14.1946 4.15059C14.1946 4.63941 14.0004 5.10821 13.6548 5.45386V5.45386Z" stroke="#28CB69" stroke-linecap="round" stroke-linejoin="round"/>
<path d="M6.70898 5.45386C7.58294 6.32014 10.1818 6.32015 10.1818 6.32015C10.1818 6.32015 10.1818 3.72128 9.31551 2.84733C8.96987 2.50168 8.50107 2.3075 8.01225 2.3075C7.52343 2.3075 7.05463 2.50168 6.70898 2.84733C6.36333 3.19297 6.16915 3.66177 6.16915 4.15059C6.16915 4.63941 6.36333 5.10821 6.70898 5.45386V5.45386Z" stroke="#28CB69" stroke-linecap="round" stroke-linejoin="round"/>
</svg>
