<svg width="30" height="23" viewBox="0 0 30 23" fill="none" xmlns="http://www.w3.org/2000/svg">
<path d="M5.43736 22.9496V21.4232C5.43736 20.8393 5.07708 20.457 4.45858 20.457C4.14933 20.457 3.81306 20.5577 3.58188 20.8897C3.40173 20.6111 3.14353 20.457 2.75622 20.457C2.49801 20.457 2.2398 20.534 2.03564 20.8126V20.5073H1.49521V22.9496H2.03564V21.601C2.03564 21.1683 2.26683 20.9638 2.62711 20.9638C2.9874 20.9638 3.16755 21.192 3.16755 21.601V22.9496H3.70798V21.601C3.70798 21.1683 3.96619 20.9638 4.29945 20.9638C4.65974 20.9638 4.83989 21.192 4.83989 21.601V22.9496H5.43736ZM13.4538 20.5073H12.5771V19.7693H12.0366V20.5073H11.5473V20.9905H12.0366V22.1108C12.0366 22.671 12.2678 23 12.8863 23C13.1175 23 13.3757 22.9229 13.5559 22.8222L13.3997 22.3628C13.2436 22.4635 13.0635 22.4902 12.9344 22.4902C12.6762 22.4902 12.5741 22.3361 12.5741 22.0841V20.9905H13.4508V20.5073H13.4538ZM18.0415 20.454C17.7322 20.454 17.525 20.6081 17.3959 20.8097V20.5044H16.8555V22.9466H17.3959V21.5714C17.3959 21.1653 17.5761 20.9341 17.9123 20.9341C18.0144 20.9341 18.1435 20.9608 18.2486 20.9845L18.4047 20.4747C18.2967 20.454 18.1435 20.454 18.0415 20.454ZM11.1089 20.7089C10.8507 20.5311 10.4904 20.454 10.1031 20.454C9.4846 20.454 9.07327 20.7593 9.07327 21.2424C9.07327 21.6485 9.38252 21.8796 9.92295 21.9537L10.1812 21.9804C10.4634 22.0308 10.6195 22.1079 10.6195 22.2353C10.6195 22.4131 10.4123 22.5406 10.0521 22.5406C9.69177 22.5406 9.40654 22.4131 9.2264 22.2857L8.96819 22.6918C9.25042 22.8963 9.63772 22.997 10.025 22.997C10.7456 22.997 11.1599 22.6651 11.1599 22.2086C11.1599 21.7759 10.8237 21.5477 10.3103 21.4706L10.0521 21.4439C9.82087 21.4173 9.64073 21.3669 9.64073 21.2157C9.64073 21.0379 9.82087 20.9371 10.1061 20.9371C10.4153 20.9371 10.7246 21.0646 10.8807 21.1416L11.1089 20.7089ZM25.4874 20.454C25.1782 20.454 24.971 20.6081 24.8419 20.8097V20.5044H24.3015V22.9466H24.8419V21.5714C24.8419 21.1653 25.022 20.9341 25.3583 20.9341C25.4604 20.9341 25.5895 20.9608 25.6946 20.9845L25.8507 20.4807C25.7456 20.454 25.5925 20.454 25.4874 20.454ZM18.5819 21.7285C18.5819 22.4665 19.0983 23 19.8969 23C20.2572 23 20.5154 22.9229 20.7736 22.7214L20.5154 22.2887C20.3083 22.4428 20.1041 22.5169 19.8699 22.5169C19.4316 22.5169 19.1223 22.2116 19.1223 21.7285C19.1223 21.2691 19.4316 20.9638 19.8699 20.9401C20.1011 20.9401 20.3083 21.0171 20.5154 21.1683L20.7736 20.7356C20.5154 20.5311 20.2572 20.457 19.8969 20.457C19.0983 20.454 18.5819 20.9905 18.5819 21.7285ZM23.5809 21.7285V20.5073H23.0405V20.8126C22.8603 20.5844 22.6021 20.457 22.2658 20.457C21.5693 20.457 21.0288 20.9905 21.0288 21.7285C21.0288 22.4665 21.5693 23 22.2658 23C22.6261 23 22.8843 22.8726 23.0405 22.6443V22.9496H23.5809V21.7285ZM21.5963 21.7285C21.5963 21.2957 21.8785 20.9401 22.3439 20.9401C22.7822 20.9401 23.0915 21.272 23.0915 21.7285C23.0915 22.1612 22.7822 22.5169 22.3439 22.5169C21.8815 22.4902 21.5963 22.1582 21.5963 21.7285ZM15.1291 20.454C14.4085 20.454 13.8921 20.9638 13.8921 21.7255C13.8921 22.4902 14.4085 22.997 15.1561 22.997C15.5164 22.997 15.8767 22.8963 16.1619 22.6651L15.9037 22.2827C15.6966 22.4369 15.4384 22.5376 15.1832 22.5376C14.8469 22.5376 14.5136 22.3835 14.4356 21.9537H16.264C16.264 21.8767 16.264 21.8263 16.264 21.7492C16.288 20.9638 15.8227 20.454 15.1291 20.454ZM15.1291 20.9134C15.4654 20.9134 15.6966 21.1179 15.7476 21.4973H14.4596C14.5106 21.1683 14.7418 20.9134 15.1291 20.9134ZM28.5559 21.7285V19.5411H28.0154V20.8126C27.8353 20.5844 27.5771 20.457 27.2408 20.457C26.5443 20.457 26.0038 20.9905 26.0038 21.7285C26.0038 22.4665 26.5443 23 27.2408 23C27.6011 23 27.8593 22.8726 28.0154 22.6443V22.9496H28.5559V21.7285ZM26.5713 21.7285C26.5713 21.2957 26.8535 20.9401 27.3189 20.9401C27.7572 20.9401 28.0665 21.272 28.0665 21.7285C28.0665 22.1612 27.7572 22.5169 27.3189 22.5169C26.8535 22.4902 26.5713 22.1582 26.5713 21.7285ZM8.4788 21.7285V20.5073H7.93836V20.8126C7.75822 20.5844 7.50001 20.457 7.16375 20.457C6.46719 20.457 5.92675 20.9905 5.92675 21.7285C5.92675 22.4665 6.46719 23 7.16375 23C7.52403 23 7.78224 22.8726 7.93836 22.6443V22.9496H8.4788V21.7285ZM6.47019 21.7285C6.47019 21.2957 6.75242 20.9401 7.21779 20.9401C7.65614 20.9401 7.96539 21.272 7.96539 21.7285C7.96539 22.1612 7.65614 22.5169 7.21779 22.5169C6.75242 22.4902 6.47019 22.1582 6.47019 21.7285Z" fill="black"/>
<path d="M19.0472 1.95914H10.9287V16.3578H19.0472V1.95914Z" fill="#FF5A00"/>
<path d="M11.4692 9.1585C11.4692 6.23312 12.8623 3.63673 15 1.95915C13.4267 0.738015 11.4422 0 9.27742 0C4.14932 0 0 4.09613 0 9.1585C0 14.2209 4.14932 18.317 9.27742 18.317C11.4422 18.317 13.4267 17.579 15 16.3579C12.8593 14.704 11.4692 12.0839 11.4692 9.1585Z" fill="#EB001B"/>
<path d="M30 9.1585C30 14.2209 25.8507 18.317 20.7226 18.317C18.5578 18.317 16.5733 17.579 15 16.3579C17.1647 14.6773 18.5308 12.0839 18.5308 9.1585C18.5308 6.23312 17.1377 3.63673 15 1.95915C16.5703 0.738015 18.5548 0 20.7196 0C25.8507 0 30 4.12281 30 9.1585Z" fill="#F79E1B"/>
</svg>
