<svg width="18" height="20" viewBox="0 0 18 20" fill="none" xmlns="http://www.w3.org/2000/svg">
<path d="M3.27258 7.57733C3.27143 6.7707 3.43155 5.97182 3.74371 5.2267C4.05587 4.48158 4.5139 3.80494 5.09143 3.23575C5.66895 2.66657 6.35455 2.21609 7.10875 1.91025C7.86294 1.60442 8.67082 1.44928 9.48586 1.45377C12.889 1.47928 15.6132 4.27741 15.6132 7.65387V8.25772C15.6132 11.3025 16.2577 13.0715 16.8249 14.0411C16.8852 14.1443 16.9169 14.2615 16.917 14.3807C16.9171 14.4999 16.8856 14.6171 16.8255 14.7204C16.7655 14.8238 16.679 14.9097 16.5749 14.9696C16.4707 15.0295 16.3524 15.0613 16.232 15.0617H2.65383C2.53335 15.0613 2.4151 15.0295 2.31093 14.9696C2.20675 14.9097 2.12031 14.8238 2.06025 14.7204C2.0002 14.6171 1.96864 14.4999 1.96875 14.3807C1.96886 14.2615 2.00062 14.1443 2.06086 14.0411C2.62805 13.0715 3.27258 11.3025 3.27258 8.25772V7.57733Z" stroke="#01023C" stroke-width="2" stroke-linecap="round" stroke-linejoin="round"/>
<path d="M6.69289 15.0616V15.742C6.69289 16.4638 6.98262 17.156 7.49834 17.6664C8.01407 18.1768 8.71354 18.4636 9.44289 18.4636C10.1722 18.4636 10.8717 18.1768 11.3874 17.6664C11.9032 17.156 12.1929 16.4638 12.1929 15.742V15.0616" stroke="#01023C" stroke-width="2" stroke-linecap="round" stroke-linejoin="round"/>
</svg>
